<?xml version="1.0" standalone="no"?>
<!DOCTYPE svg PUBLIC "-//W3C//DTD SVG 20010904//EN"
 "http://www.w3.org/TR/2001/REC-SVG-20010904/DTD/svg10.dtd">
<svg version="1.0" xmlns="http://www.w3.org/2000/svg"
 width="256.000000pt" height="256.000000pt" viewBox="0 0 256.000000 256.000000"
 preserveAspectRatio="xMidYMid meet">

<g transform="translate(0.000000,256.000000) scale(0.100000,-0.100000)"
fill="#000000" stroke="none">
<path d="M841 2310 c-66 -14 -169 -49 -226 -78 -132 -66 -265 -189 -319 -296
-16 -31 -32 -56 -37 -56 -4 0 -34 -10 -66 -21 -192 -72 -254 -299 -120 -443
29 -32 129 -99 322 -217 292 -178 323 -199 392 -262 52 -47 92 -49 108 -3 9
27 6 32 -48 82 -72 67 -115 96 -407 274 -284 173 -295 180 -321 232 -52 101
16 223 141 253 23 5 31 -2 82 -82 116 -181 240 -311 448 -470 127 -98 250
-223 352 -359 164 -218 358 -347 603 -400 62 -13 151 -18 394 -23 l315 -6 -32
-36 c-53 -61 -56 -61 -414 -57 -297 4 -329 6 -403 27 -150 42 -281 113 -401
218 -34 29 -70 53 -81 53 -27 0 -43 -19 -43 -51 0 -35 88 -114 214 -193 l89
-56 -496 0 -497 0 -16 -25 c-15 -23 -15 -27 0 -50 l17 -25 992 2 c958 3 993 4
1031 22 153 76 190 272 84 438 -50 79 -101 115 -292 208 -161 78 -187 94 -237
147 -31 32 -66 77 -77 99 -11 22 -66 173 -122 335 -189 545 -190 549 -217 555
-73 19 -206 -39 -282 -121 l-49 -55 -37 42 c-53 58 -77 119 -86 223 -9 95 -21
121 -72 159 -31 23 -117 30 -186 16z m-173 -251 c96 -158 80 -355 -40 -493
l-34 -39 -54 64 c-65 78 -170 236 -170 255 0 28 39 92 92 149 54 59 145 127
163 122 5 -2 25 -28 43 -58z m860 -181 c12 -33 20 -64 16 -67 -11 -11 -203 -6
-214 5 -16 16 22 59 84 94 76 44 88 41 114 -32z m77 -219 c9 -28 15 -51 14
-53 -11 -8 -120 -48 -124 -45 -8 8 -45 110 -45 124 0 11 12 15 43 16 23 0 51
4 62 8 27 12 31 8 50 -50z m70 -200 c9 -28 15 -51 14 -53 -11 -8 -109 -46
-119 -46 -10 0 -24 29 -36 75 -5 22 0 27 47 49 30 13 59 25 66 25 6 1 19 -22
28 -50z m68 -198 c9 -27 17 -54 17 -60 0 -13 -117 -74 -123 -63 -13 23 -38
114 -33 120 7 6 106 51 116 52 3 0 13 -22 23 -49z m96 -207 c18 -25 31 -47 29
-49 -2 -1 -28 -19 -59 -38 l-57 -36 -36 54 -36 55 58 29 c31 17 60 30 63 31 3
0 20 -21 38 -46z m215 -205 c-30 -12 -146 -9 -183 5 l-33 12 53 35 53 36 64
-41 c54 -33 61 -41 46 -47z"/>
<path d="M19 861 c-20 -16 -22 -23 -14 -47 l10 -29 285 0 285 0 10 29 c8 24 6
31 -14 47 -21 18 -43 19 -281 19 -238 0 -260 -1 -281 -19z"/>
<path d="M955 804 c-43 -43 19 -110 65 -69 25 23 26 47 2 68 -23 21 -46 21
-67 1z"/>
<path d="M17 592 c-21 -23 -22 -46 -1 -66 22 -23 176 -23 198 0 21 21 20 47
-2 67 -28 25 -172 24 -195 -1z"/>
<path d="M348 599 c-21 -12 -24 -59 -6 -77 17 -17 459 -17 476 0 17 17 15 54
-4 72 -13 14 -48 16 -232 16 -129 0 -224 -5 -234 -11z"/>
</g>
</svg>
